<svg xmlns="http://www.w3.org/2000/svg" height="512pt" viewBox="0 -71 512 512" width="512pt"><path d="M406.48515-22.025722l-12.5729-46.86454c-.13084-.48536-.57399-.823-1.07623-.823H260.29934c-11.69503 0-21.1743 9.47927-21.1743 21.1743V354.83207c0 11.69503 9.47927 21.17008 21.1743 21.17008h200.3054c11.69504 0 21.17431-9.47505 21.17431-21.17008V-48.538962c0-11.69503-9.47927-21.1743-21.17431-21.1743h-30.66199c-.44316 0-.84411.26589-1.02138.67107l-20.33863 47.16842c-.41783.97071-1.82326.86942-2.09759-.15195zm0 0" fill="#a65d51"/><path d="M318.95751 15.037788c0-25.45497-13.02159-46.09475-29.08767-46.09475H239.3815V352.34417c0 13.03813 6.67118 23.60984 14.90175 23.60984h64.67426zm0 0" fill="#66362f"/><path d="M38.017325 16.794538V420.16557c0 11.69503 9.479266 21.1743 21.174299 21.1743H259.50125c11.69082 0 21.17009-9.47927 21.17009-21.1743V16.794538c0-11.69082-9.47927-21.1700797-21.17009-21.1700797H59.191624c-11.695033 0-21.174299 9.4792597-21.174299 21.1700797zm0 0" fill="#eab875"/><path d="M166.49388-4.3755417h-24.51695c10.75808 8.6604897 26.82555 24.3987697 34.57442 33.3420197 29.09197 33.54041 47.52716 77.615202 51.92072 124.104102 3.24135 34.46892-.9243 68.14014-6.71062 108.58529l-.42627 2.9628c-5.0815 35.58734-10.33604 72.39019-7.87547 109.15505 1.53204 22.77387 9.47925 48.70469 17.19857 67.56615h17.62064c-8.44103-18.94165-17.16482-46.59865-18.64622-68.65082-2.35504-35.07244 2.78131-71.01851 7.74885-105.77865l.42207-2.95857c4.67209-32.64987 10.48796-73.28072 6.80345-112.40063-4.70587-49.82312-24.52539-97.130812-55.8078-133.199302-5.25032-6.06065-13.80107-14.76757-22.30539-22.7274397zm0 0M64.674066 441.33987c3.735152-32.97907 20.937954-65.43901 37.608964-96.87759 6.14929-11.59796 11.95671-22.55019 17.15638-33.58681 10.96488-23.28878 17.50667-46.79703 19.44389-69.87055.24056-2.80664.35874-5.56264.35452-8.27221 0-17.81054-5.09838-33.33358-14.68737-44.31957-7.25928-8.30596-16.89893-12.82613-28.64461-13.42121-11.59796-.59089-25.259751 2.86572-39.499753 9.98993-6.221032 3.11474-12.450504 6.88788-18.388762 11.07885v20.46525c15.894441-13.45921 39.107246-26.26424 57.065515-25.34839 7.29304.37141 12.94009 2.95437 17.25767 7.89658 10.9691 12.56445 11.22233 30.80551 10.39089 40.56754-1.77261 21.14898-7.81638 42.79176-17.95827 64.32903-5.03084 10.68632-10.75386 21.47395-16.81029 32.89886-17.109947 32.26158-34.764341 65.55718-39.195876 100.89974-.09707.21524-.181482.43471-.257451.6584 3.14006 1.84014 6.782359 2.91215 10.682111 2.91215zm0 0" fill="#c68d4e"/><path d="M79.272809 121.51805c29.062431-6.59665 58.065781.55711 73.892691 18.21995 12.06221 13.46342 16.03794 31.47655 17.245 44.21828 1.51939 16.0084-.20257 32.75539-1.86547 48.94525l-.28278 2.75599c-5.79475 56.68569-9.96883 117.53277-1.359 178.43473 1.22817 8.71536 3.45238 19.97146 4.96332 27.24762h16.5613c-1.98788-9.34421-4.32181-21.29248-5.47824-29.50981-8.36082-59.19266-4.25427-118.86222 1.43076-174.52653l.28277-2.74333c1.7473-16.9749 3.54945-34.528 1.88236-52.13174-2.06384-21.74829-9.43284-40.24679-21.31358-53.50341-10.36557-11.57263-24.78283-19.70978-41.69864-23.53356-15.21916-3.43972-31.76356-3.32998-47.847922.32075-10.011051 2.26642-25.019185 8.41148-37.668053 14.22735v17.90762c13.256621-6.41096 30.991206-14.00365 41.255484-16.32916zm0 0" fill="#c68d4e"/><g fill="#66362f"><path d="M383.34831444 376.00214914V270.72573948c0-4.47795992-3.62540877-8.1033795-8.1033795-8.1033795-4.47795992 0-8.1033795 3.62541958-8.1033795 8.1033795v105.27640966zm0 0M281.33437291-69.7132672v36.4061179c0 4.47795993 3.62540877 8.1033795 8.1033795 8.1033795 4.47795993 0 8.1033795-3.62541957 8.1033795-8.1033795v-36.4061179zm0 0M408.58274602-21.87378863c-.41783186.97072004-1.82326039.8694278-2.0975868-.15193296l-7.2761649-27.11255725v205.58105241c0 4.47795993 3.62964413 8.1033795 8.1033795 8.1033795 4.47795992 0 8.1033795-3.62541957 8.1033795-8.1033795V-37.72601938zm0 0"/></g></svg>