<?xml version="1.0" encoding="UTF-8" standalone="no"?>
<svg
   xmlns:dc="http://purl.org/dc/elements/1.1/"
   xmlns:cc="http://creativecommons.org/ns#"
   xmlns:rdf="http://www.w3.org/1999/02/22-rdf-syntax-ns#"
   xmlns:svg="http://www.w3.org/2000/svg"
   xmlns="http://www.w3.org/2000/svg"
   xmlns:sodipodi="http://sodipodi.sourceforge.net/DTD/sodipodi-0.dtd"
   xmlns:inkscape="http://www.inkscape.org/namespaces/inkscape"
   height="512pt"
   viewBox="0 -71 512 512"
   width="512pt"
   version="1.1"
   id="svg22"
   sodipodi:docname="wood.svg"
   inkscape:version="1.0.2 (e86c870879, 2021-01-15)">
  <metadata
     id="metadata28">
    <rdf:RDF>
      <cc:Work
         rdf:about="">
        <dc:format>image/svg+xml</dc:format>
        <dc:type
           rdf:resource="http://purl.org/dc/dcmitype/StillImage" />
        <dc:title></dc:title>
      </cc:Work>
    </rdf:RDF>
  </metadata>
  <defs
     id="defs26" />
  <sodipodi:namedview
     pagecolor="#ffffff"
     bordercolor="#666666"
     borderopacity="1"
     objecttolerance="10"
     gridtolerance="10"
     guidetolerance="10"
     inkscape:pageopacity="0"
     inkscape:pageshadow="2"
     inkscape:window-width="1920"
     inkscape:window-height="1015"
     id="namedview24"
     showgrid="false"
     inkscape:zoom="1.2018199"
     inkscape:cx="-41.370311"
     inkscape:cy="169.90015"
     inkscape:window-x="0"
     inkscape:window-y="0"
     inkscape:window-maximized="1"
     inkscape:current-layer="svg22" />
  <path
     d="M 464.31246,294.97954 511.177,282.40664 C 511.66236,282.2758 512,281.83265 512,281.33041 V 148.79373 c 0,-11.69503 -9.47927,-21.1743 -21.1743,-21.1743 H 87.454664 c -11.695033,0 -21.170079,9.47927 -21.170079,21.1743 v 200.3054 c 0,11.69504 9.475046,21.17431 21.170079,21.17431 H 490.8257 c 11.69503,0 21.1743,-9.47927 21.1743,-21.17431 v -30.66199 c 0,-0.44316 -0.26589,-0.84411 -0.67107,-1.02138 l -47.16842,-20.33863 c -0.97071,-0.41783 -0.86942,-1.82326 0.15195,-2.09759 z m 0,0"
     fill="#a65d51"
     id="path2"
     style="stroke-width:1.08045" />
  <path
     d="m 427.27914,248.79449 c 25.45497,0 46.09475,-18.50272 46.09475,-41.33145 V 135.72281 H 89.972756 c -13.038133,0 -23.609846,9.47926 -23.609846,21.1743 v 91.89738 z m 0,0"
     fill="#66362f"
     id="path4"
     style="stroke-width:1.14102" />
  <path
     d="M 425.4922,-21.685339 H 22.121167 c -11.695032,0 -21.17429881,9.479266 -21.17429881,21.17429887 V 199.79859 c 0,11.69082 9.47926681,21.17009 21.17429881,21.17009 H 425.4922 c 11.69082,0 21.17008,-9.47927 21.17008,-21.17009 V -0.51104013 c 0,-11.69503287 -9.47926,-21.17429887 -21.17008,-21.17429887 z m 0,0"
     fill="#eab875"
     id="path6"
     style="stroke-width:1.08045" />
  <path
     d="M 446.66228,106.79122 V 82.274267 c -8.66049,10.758079 -24.39877,26.825553 -33.34202,34.574423 -33.54041,29.09197 -77.6152,47.52716 -124.1041,51.92072 -34.46892,3.24135 -68.14014,-0.9243 -108.58529,-6.71062 l -2.9628,-0.42627 c -35.58734,-5.0815 -72.39019,-10.33604 -109.155051,-7.87547 -22.773877,1.53204 -48.704691,9.47925 -67.56615081,17.19857 v 17.62064 C 19.888518,180.13523 47.54552,171.41144 69.597683,169.93004 104.67013,167.575 140.6162,172.71135 175.37634,177.67889 l 2.95857,0.42207 c 32.64987,4.67209 73.28072,10.48796 112.40063,6.80345 49.82312,-4.70587 97.13081,-24.52539 133.1993,-55.8078 6.06065,-5.25032 14.76757,-13.80107 22.72744,-22.30539 z m 0,0"
     fill="#c68d4e"
     id="path8"
     style="stroke-width:1.08045" />
  <path
     d="M 0.94686819,4.9714028 C 33.925935,8.706554 66.385878,25.909353 97.824455,42.580369 c 11.597965,6.149283 22.550195,11.956705 33.586815,17.156373 23.28878,10.964885 46.79703,17.506676 69.87055,19.443891 2.80664,0.240563 5.56264,0.358743 8.27221,0.354518 17.81054,0 33.33358,-5.098372 44.31957,-14.68737 8.30596,-7.259278 12.82613,-16.898923 13.42121,-28.644603 0.59089,-11.597962 -2.86572,-25.259753 -9.98993,-39.4997548 -3.11474,-6.2210314 -6.88788,-12.4505042 -11.07885,-18.3887622 h -20.46525 c 13.45921,15.8944415 26.26424,39.107246 25.34839,57.065518 -0.37141,7.29304 -2.95437,12.940084 -7.89658,17.257665 C 230.64814,63.60695 212.40708,63.86018 202.64505,63.02874 181.49607,61.256127 159.85329,55.212356 138.31602,45.07047 127.6297,40.039621 116.84207,34.31661 105.41716,28.260177 73.155574,11.150229 39.859971,-6.5041645 4.5174203,-10.9357 4.302174,-11.032772 4.0827075,-11.117182 3.8590197,-11.193151 2.0188783,-8.053091 0.94686819,-4.4107915 0.94686819,-0.51104013 Z m 0,0"
     fill="#c68d4e"
     id="path10"
     style="stroke-width:1.08045" />
  <path
     d="m 320.76869,19.570148 c 6.59665,29.062432 -0.55711,58.065777 -18.21995,73.892692 -13.46342,12.06221 -31.47655,16.03794 -44.21828,17.245 -16.0084,1.51939 -32.75539,-0.20257 -48.94525,-1.86547 l -2.75599,-0.28278 c -56.68569,-5.79475 -117.532774,-9.968834 -178.434738,-1.359 -8.715354,1.22817 -19.9714543,3.45238 -27.24761381,4.96332 v 16.5613 C 10.291078,126.73733 22.239342,124.4034 30.456675,123.24697 89.649334,114.88615 149.3189,118.9927 204.98321,124.67773 l 2.74333,0.28277 c 16.9749,1.7473 34.528,3.54945 52.13174,1.88236 21.74829,-2.06384 40.24679,-9.43284 53.50341,-21.31358 11.57263,-10.365573 19.70978,-24.782835 23.53356,-41.698642 3.43972,-15.21916 3.32998,-31.76356 -0.32075,-47.847924 -2.26642,-10.0110506 -8.41148,-25.0191846 -14.22735,-37.668053 h -17.90762 c 6.41096,13.2566218 14.00365,30.9912064 16.32916,41.255487 z m 0,0"
     fill="#c68d4e"
     id="path12"
     style="stroke-width:1.08045" />
  <g
     fill="#66362f"
     id="g20"
     transform="matrix(1.0804506,0,0,1.0804506,-41.190705,-29.788718)">
    <path
       d="m 99.472656,279.17187 h 97.437504 c 4.14453,0 7.5,-3.35546 7.5,-7.5 0,-4.14453 -3.35547,-7.5 -7.5,-7.5 H 99.472656 Z m 0,0"
       id="path14" />
    <path
       d="m 512,184.75391 h -33.69531 c -4.14453,0 -7.5,3.35546 -7.5,7.5 0,4.14453 3.35547,7.5 7.5,7.5 H 512 Z m 0,0"
       id="path16" />
    <path
       d="m 467.72266,302.52734 c -0.89844,-0.38672 -0.80469,-1.6875 0.14062,-1.9414 l 25.09375,-6.73438 H 302.68359 c -4.14453,0 -7.5,3.35938 -7.5,7.5 0,4.14453 3.35547,7.5 7.5,7.5 h 179.71094 z m 0,0"
       id="path18" />
  </g>
</svg>
