<svg xmlns="http://www.w3.org/2000/svg" viewBox="0 0 512 512"><path d="M512 220.69v17.655L282.483 476.69H141.241V264.828h141.243l114.757-114.759-4.414 22.069c-.007 12.879 5.106 25.232 14.212 34.339s21.46 14.22 34.339 14.212H512z" fill="#7f8c8d"/><path fill="#d1d4d1" d="M512 220.69v52.965l-52.966 52.966L282.483 512h-17.655v-52.966h17.655l176.551-185.379z"/><path fill="#ecf0f1" d="M512 0v26.483L282.483 247.172H0v-17.655L229.517 0z"/><path fill="#7f8c8d" d="M114.759 344.276h8.827v123.586H0v-8.828z"/><path fill="#d1d4d1" d="M512 0v52.966L282.483 282.483h-8.828v-52.966h8.828z"/><path d="M167.724 331.034v79.448c-.007 12.879 5.106 25.232 14.212 34.339 9.107 9.107 21.46 14.22 34.339 14.212h66.207V512H0v-52.966h66.207c12.879.007 25.232-5.106 34.339-14.212s14.22-21.46 14.212-34.339v-79.448c.007-12.879-5.106-25.233-14.212-34.339-9.107-9.107-21.46-14.22-34.339-14.212H0v-52.966h282.483v52.966h-66.207c-12.879-.007-25.233 5.106-34.339 14.212-9.107 9.106-14.22 21.46-14.213 34.338z" fill="#c5ccd4"/><g fill="#95a5a5"><path d="M211.862 423.28c-2.348.023-4.607-.9-6.267-2.56-1.66-1.66-2.583-3.919-2.56-6.267 0-4.875 3.952-8.828 8.828-8.828 4.875 0 8.828 3.952 8.828 8.828.023 2.348-.9 4.607-2.56 6.267-1.662 1.66-3.921 2.583-6.269 2.56zM238.345 395.56c-3.533.001-6.727-2.105-8.117-5.354-1.391-3.248-.71-7.013 1.729-9.569l8.828-9.25c2.177-2.282 5.407-3.229 8.472-2.485 3.065.745 5.5 3.068 6.388 6.095.888 3.027.093 6.297-2.084 8.58l-8.828 9.25c-1.665 1.749-3.974 2.737-6.388 2.733zM273.655 358.569c-3.533.001-6.727-2.105-8.117-5.354-1.391-3.248-.71-7.013 1.729-9.569l8.828-9.25c3.366-3.528 8.955-3.659 12.483-.293 3.528 3.366 3.659 8.955.293 12.483l-8.828 9.25c-1.664 1.748-3.974 2.736-6.388 2.733zM308.966 321.578c-3.533.001-6.727-2.105-8.117-5.354-1.391-3.248-.71-7.013 1.729-9.569l8.828-9.25c3.366-3.528 8.955-3.659 12.483-.293 3.528 3.366 3.659 8.955.293 12.483l-8.828 9.25c-1.665 1.748-3.975 2.736-6.388 2.733zM344.276 284.586c-3.533.001-6.727-2.105-8.117-5.354-1.391-3.248-.71-7.013 1.729-9.569l8.828-9.25c3.366-3.528 8.955-3.659 12.483-.293 3.528 3.366 3.659 8.955.293 12.483l-8.828 9.25c-1.665 1.749-3.974 2.737-6.388 2.733zM379.586 247.612c-2.359-.008-4.616-.962-6.268-2.647-1.674-1.616-2.601-3.855-2.56-6.181-.021-3.586 2.13-6.829 5.442-8.204 3.312-1.375 7.127-.61 9.653 1.937 1.625 1.684 2.542 3.927 2.56 6.268.039 2.326-.888 4.564-2.56 6.181-1.65 1.684-3.908 2.638-6.267 2.646z"/></g></svg>