<svg width="22" height="25" viewBox="0 0 22 25" fill="none" xmlns="http://www.w3.org/2000/svg">
<path d="M21.7521 15.7696L19.4615 13.436V10.3447C19.4589 8.20836 18.6789 6.14891 17.2722 4.56457C15.8656 2.98023 13.9323 1.98353 11.8462 1.76721V0H10.1538V1.76721C8.06772 1.98353 6.13441 2.98023 4.72777 4.56457C3.32114 6.14891 2.54109 8.20836 2.53846 10.3447V13.436L0.247923 15.7696C0.0892274 15.9312 4.7924e-05 16.1505 0 16.3791V18.9652C0 19.1939 0.0891481 19.4131 0.247833 19.5748C0.406517 19.7365 0.62174 19.8273 0.846154 19.8273H6.76923V20.4971C6.75082 21.5907 7.12919 22.6528 7.83182 23.4799C8.53444 24.3069 9.51192 24.8407 10.5769 24.9789C11.1652 25.0384 11.7591 24.9717 12.3205 24.7832C12.8819 24.5948 13.3984 24.2887 13.8368 23.8847C14.2751 23.4806 14.6256 22.9876 14.8657 22.4373C15.1057 21.887 15.2301 21.2916 15.2308 20.6893V19.8273H21.1538C21.3783 19.8273 21.5935 19.7365 21.7522 19.5748C21.9109 19.4131 22 19.1939 22 18.9652V16.3791C22 16.1505 21.9108 15.9312 21.7521 15.7696ZM13.5385 20.6893C13.5385 21.3752 13.271 22.033 12.795 22.518C12.3189 23.003 11.6732 23.2755 11 23.2755C10.3268 23.2755 9.68109 23.003 9.20504 22.518C8.72898 22.033 8.46154 21.3752 8.46154 20.6893V19.8273H13.5385V20.6893ZM20.3077 18.1032H1.69231V16.736L3.98285 14.4024C4.14154 14.2407 4.23072 14.0215 4.23077 13.7929V10.3447C4.23077 8.51562 4.94395 6.76148 6.21343 5.46815C7.48291 4.17481 9.20469 3.44822 11 3.44822C12.7953 3.44822 14.5171 4.17481 15.7866 5.46815C17.056 6.76148 17.7692 8.51562 17.7692 10.3447V13.7929C17.7693 14.0215 17.8585 14.2407 18.0172 14.4024L20.3077 16.736V18.1032Z" fill="black"/>
</svg>
