<svg width="31" height="31" viewBox="0 0 31 31" fill="none" xmlns="http://www.w3.org/2000/svg">
<path d="M15.2161 13.2008C15.0324 13.0297 14.7895 12.9366 14.5386 12.941C14.2876 12.9454 14.0481 13.0471 13.8706 13.2246C13.6932 13.4021 13.5915 13.6415 13.5871 13.8925C13.5826 14.1435 13.6758 14.3864 13.8469 14.57L14.7769 15.5L13.8469 16.43C13.7517 16.5187 13.6754 16.6256 13.6224 16.7445C13.5695 16.8633 13.541 16.9916 13.5387 17.1217C13.5364 17.2517 13.5604 17.3809 13.6091 17.5016C13.6578 17.6222 13.7303 17.7318 13.8223 17.8238C13.9143 17.9157 14.0239 17.9883 14.1445 18.037C14.2651 18.0857 14.3943 18.1096 14.5244 18.1073C14.6545 18.1051 14.7828 18.0766 14.9016 18.0236C15.0204 17.9707 15.1274 17.8943 15.2161 17.7992L16.1461 16.8692L17.0761 17.7992C17.258 17.9807 17.5046 18.0826 17.7616 18.0824C18.0186 18.0821 18.265 17.9798 18.4465 17.7979C18.6281 17.616 18.73 17.3694 18.7297 17.1124C18.7295 16.8554 18.6271 16.609 18.4452 16.4274L17.5165 15.5L18.4465 14.57C18.539 14.4806 18.6128 14.3737 18.6635 14.2554C18.7142 14.1372 18.7409 14.0101 18.7419 13.8815C18.743 13.7528 18.7184 13.6253 18.6696 13.5063C18.6209 13.3872 18.5489 13.2791 18.4579 13.1882C18.3669 13.0973 18.2587 13.0254 18.1396 12.9767C18.0205 12.9281 17.893 12.9036 17.7643 12.9048C17.6357 12.906 17.5086 12.9328 17.3904 12.9836C17.2723 13.0344 17.1654 13.1083 17.0761 13.2008L16.1461 14.1308L15.2161 13.2008Z" fill="black"/>
<path d="M6.74279 13.2008C6.92443 13.0194 7.17065 12.9175 7.42737 12.9175C7.68409 12.9175 7.93031 13.0194 8.11195 13.2008L9.04195 14.1308L9.97195 13.2008C10.0606 13.1057 10.1676 13.0293 10.2864 12.9764C10.4053 12.9234 10.5335 12.8949 10.6636 12.8927C10.7937 12.8904 10.9229 12.9143 11.0435 12.963C11.1641 13.0117 11.2737 13.0843 11.3657 13.1762C11.4577 13.2682 11.5302 13.3778 11.5789 13.4984C11.6277 13.6191 11.6516 13.7483 11.6493 13.8783C11.647 14.0084 11.6185 14.1367 11.5656 14.2555C11.5126 14.3744 11.4363 14.4813 11.3411 14.57L10.4124 15.5L11.3424 16.4274C11.4325 16.5174 11.5039 16.6242 11.5527 16.7419C11.6015 16.8595 11.6266 16.9855 11.6267 17.1128C11.6268 17.2402 11.6017 17.3662 11.5531 17.4839C11.5044 17.6015 11.433 17.7084 11.3431 17.7985C11.2531 17.8886 11.1462 17.9601 11.0286 18.0088C10.911 18.0576 10.785 18.0827 10.6576 18.0828C10.5303 18.0829 10.4042 18.0578 10.2866 18.0092C10.1689 17.9605 10.062 17.8892 9.97195 17.7992L9.04195 16.8692L8.11195 17.7992C7.92831 17.9703 7.68542 18.0634 7.43445 18.059C7.18347 18.0546 6.94402 17.9529 6.76653 17.7754C6.58903 17.5979 6.48736 17.3585 6.48294 17.1075C6.47851 16.8565 6.57167 16.6136 6.74279 16.43L7.67279 15.5L6.74279 14.57C6.56137 14.3884 6.45947 14.1421 6.45947 13.8854C6.45947 13.6287 6.56137 13.3825 6.74279 13.2008Z" fill="black"/>
<path d="M21.3125 17.4375C21.0556 17.4375 20.8092 17.5396 20.6275 17.7212C20.4458 17.9029 20.3438 18.1493 20.3438 18.4062C20.3438 18.6632 20.4458 18.9096 20.6275 19.0913C20.8092 19.2729 21.0556 19.375 21.3125 19.375H23.5729C23.8298 19.375 24.0763 19.2729 24.2579 19.0913C24.4396 18.9096 24.5417 18.6632 24.5417 18.4062C24.5417 18.1493 24.4396 17.9029 24.2579 17.7212C24.0763 17.5396 23.8298 17.4375 23.5729 17.4375H21.3125Z" fill="black"/>
<path d="M6.78141 6.45834C5.66806 6.45834 4.6003 6.90062 3.81304 7.68788C3.02578 8.47514 2.5835 9.5429 2.5835 10.6563V20.3438C2.5835 21.4571 3.02578 22.5249 3.81304 23.3121C4.6003 24.0994 5.66806 24.5417 6.78141 24.5417H24.2189C24.7702 24.5417 25.3161 24.4331 25.8254 24.2221C26.3347 24.0112 26.7975 23.7019 27.1873 23.3121C27.5771 22.9223 27.8863 22.4595 28.0973 21.9502C28.3083 21.4409 28.4168 20.895 28.4168 20.3438V10.6563C28.4168 10.105 28.3083 9.55909 28.0973 9.04978C27.8863 8.54047 27.5771 8.07769 27.1873 7.68788C26.7975 7.29806 26.3347 6.98885 25.8254 6.77788C25.3161 6.56692 24.7702 6.45834 24.2189 6.45834H6.78141ZM4.521 10.6563C4.521 9.40721 5.53237 8.39584 6.78141 8.39584H24.2189C25.468 8.39584 26.4793 9.40721 26.4793 10.6563V20.3438C26.4793 20.9433 26.2412 21.5182 25.8173 21.9421C25.3934 22.366 24.8184 22.6042 24.2189 22.6042H6.78141C6.18191 22.6042 5.60697 22.366 5.18306 21.9421C4.75915 21.5182 4.521 20.9433 4.521 20.3438V10.6563Z" fill="black"/>
</svg>
